<svg width="115" height="25" viewBox="0 0 115 25" fill="none" xmlns="http://www.w3.org/2000/svg">
<path d="M16.9067 4.12821C14.009 2.92942 13.3368 3.5309 0.0274096 7.10331L1.77492 7.85768C12.8094 4.89537 12.4967 5.07316 13.0721 4.99833C18.7691 4.25271 22.1721 10.9287 18.5479 15.2744C17.7683 16.2088 16.6877 16.9414 15.3281 17.3065C11.9511 18.2107 12.3014 17.8177 12.2648 19.5768C12.2799 18.9842 13.0919 18.9176 15.8413 18.1806C22.6897 16.3398 23.3835 6.80667 16.9067 4.12821Z" fill="#001A7C"/>
<path d="M13.9145 8.98243C13.5946 9.00638 13.6567 9.0127 0.0275503 12.6752C0.0275503 20.999 -0.0908884 21.0309 0.388384 22.1634C1.82068 25.5544 5.21059 24.9599 8.17465 24.9599C6.33414 18.0947 5.88286 17.4461 6.71207 16.0026C7.61193 14.4451 8.96536 14.4861 14.1703 12.9608C14.8364 12.7676 16.1102 12.4731 16.0628 10.9481C16.0305 9.85712 15.0768 8.90746 13.9145 8.98243Z" fill="#3D52A1"/>
<path d="M20.389 0.0168821C22.9215 0.0168821 24.9704 2.0765 24.9704 4.60476V20.3782C24.9704 22.2749 23.8197 23.9052 22.1722 24.6014C21.0676 25.0675 20.9797 24.9601 13.7425 24.9601C12.9565 22.0669 12.5956 20.7563 12.445 20.0968C12.224 19.1302 12.299 19.1 14.0668 18.6447C16.0946 18.1228 17.9721 17.7855 19.6454 15.7792C22.7087 12.1085 21.7336 6.12363 16.9067 4.12821C14.009 2.92942 13.3368 3.5309 0.0274096 7.10331C0.0274096 5.03009 -0.475426 1.7761 2.82632 0.377581C3.99913 -0.118516 3.15701 0.0168821 20.389 0.0168821Z" fill="url(#paint0_linear_446_217)"/>
<path d="M8.4181 14.6194C5.35108 16.1116 6.27328 17.6221 8.23412 24.7894L8.17465 24.9599L8.07099 24.9601C6.62994 19.4212 5.02967 16.6486 7.46561 15.0595C7.81917 14.8287 8.4181 14.6194 8.4181 14.6194Z" fill="white"/>
<path d="M101.824 12.0224C101.824 11.1628 101.976 10.323 102.28 9.50309C102.598 8.66992 103.054 7.9161 103.649 7.24163C104.244 6.55393 104.972 6.01171 105.831 5.61496C106.691 5.20499 107.67 5 108.767 5C110.063 5 111.181 5.28434 112.12 5.85301C113.072 6.42168 113.779 7.16228 114.242 8.0748L112.14 9.52292C111.902 8.99393 111.591 8.57734 111.207 8.27317C110.824 7.95577 110.414 7.73756 109.977 7.61854C109.541 7.48629 109.111 7.42016 108.688 7.42016C108 7.42016 107.398 7.55902 106.883 7.83675C106.38 8.11447 105.957 8.47816 105.613 8.9278C105.269 9.37745 105.011 9.88 104.839 10.4354C104.681 10.9909 104.601 11.5463 104.601 12.1018C104.601 12.7234 104.701 13.3251 104.899 13.907C105.097 14.4757 105.375 14.9848 105.732 15.4345C106.102 15.8709 106.539 16.2214 107.041 16.4859C107.557 16.7371 108.119 16.8628 108.728 16.8628C109.164 16.8628 109.607 16.79 110.057 16.6446C110.506 16.4991 110.923 16.2676 111.306 15.9502C111.69 15.6328 111.988 15.2229 112.199 14.7203L114.441 16.0098C114.163 16.7107 113.707 17.3058 113.072 17.7951C112.45 18.2844 111.749 18.6547 110.969 18.906C110.189 19.1573 109.415 19.2829 108.648 19.2829C107.643 19.2829 106.724 19.0779 105.891 18.668C105.058 18.2448 104.337 17.6893 103.729 17.0016C103.133 16.3007 102.664 15.5204 102.32 14.6608C101.989 13.788 101.824 12.9085 101.824 12.0224Z" fill="#3D52A1"/>
<path d="M93.72 5.07935H96.4972L101.675 19.1639H98.8579L97.5486 15.6527H92.6289L91.3395 19.1639H88.5226L93.72 5.07935ZM97.0527 13.7285L95.1086 7.9161L93.0852 13.7285H97.0527Z" fill="#3D52A1"/>
<path d="M79.5077 19.1639V5.07935H88.9702V7.47967H82.2453V11.1099H87.8394V13.3317H82.2453V19.1639H79.5077Z" fill="#3D52A1"/>
<path d="M65.3077 19.1639V5.07935H70.4258C71.9599 5.07935 73.2427 5.39675 74.2742 6.03154C75.3058 6.65312 76.0794 7.49951 76.5952 8.57073C77.111 9.62873 77.3689 10.8057 77.3689 12.1018C77.3689 13.5301 77.0845 14.7732 76.5158 15.8312C75.9472 16.8892 75.1405 17.7092 74.0957 18.2911C73.0641 18.8729 71.8408 19.1639 70.4258 19.1639H65.3077ZM74.6115 12.1018C74.6115 11.1893 74.4461 10.3892 74.1155 9.70146C73.7849 9.00054 73.3088 8.45832 72.6872 8.0748C72.0657 7.67805 71.3118 7.47967 70.4258 7.47967H68.0453V16.7636H70.4258C71.3251 16.7636 72.0855 16.5652 72.7071 16.1685C73.3286 15.7585 73.7981 15.203 74.1155 14.5021C74.4461 13.788 74.6115 12.9879 74.6115 12.1018Z" fill="#3D52A1"/>
<path d="M59.6316 19.1639V5.07935H62.3692V19.1639H59.6316Z" fill="#3D52A1"/>
<path d="M50.132 5.07935H52.9092L58.0868 19.1639H55.2698L53.9606 15.6527H49.0409L47.7515 19.1639H44.9346L50.132 5.07935ZM53.4646 13.7285L51.5206 7.9161L49.4972 13.7285H53.4646Z" fill="#3D52A1"/>
<path d="M34.9705 19.1639V5.07935H40.9415C41.5895 5.07935 42.1847 5.2116 42.7269 5.4761C43.2691 5.7406 43.7386 6.09767 44.1353 6.54732C44.5453 6.99696 44.8627 7.49951 45.0875 8.05496C45.3124 8.61041 45.4248 9.17908 45.4248 9.76097C45.4248 10.5545 45.2396 11.3083 44.8693 12.0224C44.499 12.7366 43.9899 13.3185 43.3418 13.7681C42.6938 14.2178 41.9268 14.4426 41.0407 14.4426H37.708V19.1639H34.9705ZM37.708 12.0423H40.882C41.2126 12.0423 41.5102 11.9497 41.7747 11.7646C42.0392 11.5794 42.2508 11.3149 42.4095 10.9711C42.5682 10.614 42.6475 10.2106 42.6475 9.76097C42.6475 9.27165 42.555 8.85507 42.3698 8.51122C42.1979 8.16737 41.9664 7.90948 41.6755 7.73756C41.3978 7.56564 41.0936 7.47967 40.763 7.47967H37.708V12.0423Z" fill="#3D52A1"/>
<defs>
<linearGradient id="paint0_linear_446_217" x1="15.4509" y1="-3.99118" x2="11.1544" y2="20.078" gradientUnits="userSpaceOnUse">
<stop stop-color="#3D52A1"/>
<stop offset="0.5753" stop-color="#3D52A1"/>
<stop offset="1" stop-color="#3D52A1"/>
</linearGradient>
</defs>
</svg>
